<?xml version="1.0" standalone="no"?>
<!DOCTYPE svg PUBLIC "-//W3C//DTD SVG 20010904//EN"
 "http://www.w3.org/TR/2001/REC-SVG-20010904/DTD/svg10.dtd">
<svg version="1.0" xmlns="http://www.w3.org/2000/svg"
 width="400.000000pt" height="400.000000pt" viewBox="0 0 400.000000 400.000000"
 preserveAspectRatio="xMidYMid meet">
<metadata>
Created by potrace 1.11, written by Peter Selinger 2001-2013
</metadata>
<g transform="translate(0.000000,400.000000) scale(0.100000,-0.100000)"
fill="#000000" stroke="none">
<path d="M0 2000 l0 -2000 2000 0 2000 0 0 2000 0 2000 -2000 0 -2000 0 0
-2000z m1483 873 c69 -11 66 24 53 -695 -9 -500 -14 -650 -24 -660 -19 -19
-147 -17 -166 2 -12 12 -16 125 -26 667 -6 359 -9 657 -5 662 14 24 98 36 168
24z m1133 -19 c171 -44 296 -165 339 -330 20 -76 20 -241 0 -317 -51 -195
-183 -306 -407 -342 l-37 -6 -3 -164 c-2 -118 -7 -168 -16 -177 -16 -16 -156
-18 -171 -3 -5 6 -13 106 -17 225 -8 270 -14 258 132 270 118 9 182 36 238
101 51 60 71 126 71 234 0 113 -21 178 -80 243 -62 69 -125 95 -246 100 -111
5 -181 -10 -296 -63 -90 -42 -103 -37 -110 42 -7 73 7 98 75 132 147 74 367
97 528 55z m-1123 -1535 c56 -15 70 -45 70 -144 0 -61 -4 -91 -16 -109 -32
-49 -161 -59 -217 -18 -32 24 -43 71 -37 155 5 75 21 102 71 116 43 13 84 13
129 0z m1014 -14 c35 -23 45 -60 41 -147 -5 -90 -19 -112 -81 -129 -49 -13
-130 -3 -158 19 -37 31 -43 212 -7 248 35 35 156 41 205 9z"/>
</g>
</svg>
